<?xml version="1.0" encoding="UTF-8" standalone="no"?>
<svg
   viewBox="0 0 24 24"
   version="1.1"
   id="svg4"
   sodipodi:docname="file-icon.svg"
   inkscape:version="1.2.2 (732a01da63, 2022-12-09)"
   xmlns:inkscape="http://www.inkscape.org/namespaces/inkscape"
   xmlns:sodipodi="http://sodipodi.sourceforge.net/DTD/sodipodi-0.dtd"
   xmlns="http://www.w3.org/2000/svg"
   xmlns:svg="http://www.w3.org/2000/svg">
  <defs
     id="defs8" />
  <sodipodi:namedview
     id="namedview6"
     pagecolor="#505050"
     bordercolor="#ffffff"
     borderopacity="1"
     inkscape:showpageshadow="0"
     inkscape:pageopacity="0"
     inkscape:pagecheckerboard="1"
     inkscape:deskcolor="#505050"
     showgrid="false"
     inkscape:zoom="27.812867"
     inkscape:cx="10.121215"
     inkscape:cy="11.721194"
     inkscape:window-width="1280"
     inkscape:window-height="961"
     inkscape:window-x="-8"
     inkscape:window-y="-8"
     inkscape:window-maximized="1"
     inkscape:current-layer="svg4" />
  <path
     d="M 5,3 H 7 V 5 H 5 v 5 c 0,1.104569 -0.8954305,2 -2,2 1.1045695,0 2,0.895431 2,2 v 5 h 2 v 2 H 5 C 3.93,20.73 3,20.1 3,19 V 15 C 3,13.895431 2.1045695,13 1,13 H 0 V 11 H 1 C 2.1045695,11 3,10.104569 3,9 V 5 C 3,3.8954305 3.8954305,3 5,3 m 14,0 c 1.104569,0 2,0.8954305 2,2 v 4 c 0,1.104569 0.895431,2 2,2 h 1 v 2 h -1 c -1.104569,0 -2,0.895431 -2,2 v 4 c 0,1.104569 -0.895431,2 -2,2 h -2 v -2 h 2 v -5 c 0,-1.104569 0.895431,-2 2,-2 -1.104569,0 -2,-0.895431 -2,-2 V 5 H 17 V 3 h 2"
     style="fill:#ff0063"
     id="path2"
     sodipodi:nodetypes="ccccscsccccsssccsssccsssccsssscccscscccc" />
  <text
     xml:space="preserve"
     style="font-style:normal;font-variant:normal;font-weight:bold;font-stretch:normal;font-size:18.6667px;font-family:Consolas;-inkscape-font-specification:'Consolas Bold';fill:#ff0063;fill-opacity:1"
     x="6.8242168"
     y="17.912783"
     id="text995"
     inkscape:label="text995"><tspan
       id="tspan993"
       x="6.8242168"
       y="17.912783"
       sodipodi:role="line">B</tspan></text>
</svg>
