<?xml version="1.0" encoding="UTF-8" standalone="no"?>
<!-- Created with Inkscape (http://www.inkscape.org/) -->

<svg
   version="1.1"
   id="svg1"
   width="128"
   height="128"
   viewBox="0 0 128 128"
   sodipodi:docname="extension.svg"
   inkscape:version="1.4 (e7c3feb100, 2024-10-09)"
   inkscape:export-filename="extension.png"
   inkscape:export-xdpi="96"
   inkscape:export-ydpi="96"
   xmlns:inkscape="http://www.inkscape.org/namespaces/inkscape"
   xmlns:sodipodi="http://sodipodi.sourceforge.net/DTD/sodipodi-0.dtd"
   xmlns:xlink="http://www.w3.org/1999/xlink"
   xmlns="http://www.w3.org/2000/svg"
   xmlns:svg="http://www.w3.org/2000/svg">
  <defs
     id="defs1">
    <linearGradient
       id="linearGradient9"
       inkscape:collect="always">
      <stop
         style="stop-color:#b149ae;stop-opacity:1;"
         offset="0"
         id="stop9" />
      <stop
         style="stop-color:#6024c8;stop-opacity:1;"
         offset="1"
         id="stop10" />
    </linearGradient>
    <linearGradient
       inkscape:collect="always"
       xlink:href="#linearGradient9"
       id="linearGradient10"
       x1="3.3353047"
       y1="2.8372197"
       x2="37.681568"
       y2="37.183483"
       gradientUnits="userSpaceOnUse"
       spreadMethod="pad"
       gradientTransform="matrix(2.9044269,0,0,2.9044269,5.2112923,13.15218)" />
  </defs>
  <sodipodi:namedview
     id="namedview1"
     pagecolor="#505050"
     bordercolor="#eeeeee"
     borderopacity="1"
     inkscape:showpageshadow="0"
     inkscape:pageopacity="0"
     inkscape:pagecheckerboard="0"
     inkscape:deskcolor="#505050"
     showgrid="false"
     inkscape:zoom="6.1041338"
     inkscape:cx="58.075398"
     inkscape:cy="62.170983"
     inkscape:window-width="1920"
     inkscape:window-height="1056"
     inkscape:window-x="0"
     inkscape:window-y="0"
     inkscape:window-maximized="1"
     inkscape:current-layer="svg1">
    <inkscape:page
       x="0"
       y="0"
       width="128"
       height="128"
       id="page2"
       margin="0"
       bleed="0" />
  </sodipodi:namedview>
  <path
     id="path7"
     style="display:inline;mix-blend-mode:normal;fill:url(#linearGradient10);fill-rule:nonzero;stroke:none;stroke-width:2.90443;stroke-opacity:1"
     d="m 7.2307723,34.742513 v 13.410282 7.550378 4.265877 l 3.6645707,2.183992 15.70773,9.359969 -15.70773,9.365641 -3.6645707,2.17832 v 4.265877 20.455791 C 10.924605,105.45906 14.639329,103.17447 18.366301,100.90899 29.547215,94.112528 40.84735,87.510097 52.096227,80.827598 l 3.670243,-2.17832 v -4.27155 -5.644344 -4.197806 L 52.18699,62.340241 18.661281,41.759655 Z M 122.15985,35.247384 c -14.87424,9.063351 -29.890796,17.890695 -44.865452,26.78653 l -3.675915,2.17832 v 4.27155 5.644347 4.197803 l 3.57948,2.201012 33.525707,20.580584 11.43618,7.01714 V 94.708716 87.158342 82.892465 l -3.66457,-2.183992 -15.7134,-9.359972 15.7134,-9.359969 3.66457,-2.183992 v -4.265877 z"
     inkscape:label="Icon"
     transform="translate(-0.6953125,-7.4335938)" />
</svg>
