<?xml version="1.0" encoding="UTF-8" standalone="no"?>
<svg
   viewBox="0 0 24 24"
   version="1.1"
   id="svg4"
   sodipodi:docname="file-vsc.svg"
   inkscape:version="1.2.2 (732a01da63, 2022-12-09)"
   xml:space="preserve"
   xmlns:inkscape="http://www.inkscape.org/namespaces/inkscape"
   xmlns:sodipodi="http://sodipodi.sourceforge.net/DTD/sodipodi-0.dtd"
   xmlns:xlink="http://www.w3.org/1999/xlink"
   xmlns="http://www.w3.org/2000/svg"
   xmlns:svg="http://www.w3.org/2000/svg"><defs
     id="defs8"><linearGradient
       inkscape:collect="always"
       id="linearGradient1686"><stop
         style="stop-color:#f50057;stop-opacity:1;"
         offset="0.49557522"
         id="stop1682" /><stop
         style="stop-color:#784421;stop-opacity:1;"
         offset="0.49557522"
         id="stop1684" /></linearGradient><filter
       style="color-interpolation-filters:sRGB"
       id="filter8754"
       inkscape:label="szűrő0"><feBlend
         mode="normal"
         in2="SourceGraphic"
         id="feBlend8756" /></filter><filter
       style="color-interpolation-filters:sRGB"
       id="filter8758"
       inkscape:label="szűrő1"><feColorMatrix
         id="feColorMatrix8762"
         values="1"
         type="saturate" /></filter><filter
       style="color-interpolation-filters:sRGB"
       id="filter8754-3"
       inkscape:label="szűrő0"><feBlend
         mode="normal"
         in2="SourceGraphic"
         id="feBlend8756-3" /></filter><filter
       style="color-interpolation-filters:sRGB"
       id="filter8758-4"
       inkscape:label="szűrő1"><feColorMatrix
         id="feColorMatrix8762-2"
         values="1"
         type="saturate" /></filter><linearGradient
       inkscape:collect="always"
       xlink:href="#linearGradient1686"
       id="linearGradient1688"
       x1="4.0508475"
       y1="2.0338974"
       x2="20.101696"
       y2="22.271187"
       gradientUnits="userSpaceOnUse"
       spreadMethod="pad" /></defs><sodipodi:namedview
     id="namedview6"
     pagecolor="#505050"
     bordercolor="#ffffff"
     borderopacity="1"
     inkscape:showpageshadow="0"
     inkscape:pageopacity="0"
     inkscape:pagecheckerboard="1"
     inkscape:deskcolor="#505050"
     showgrid="false"
     inkscape:zoom="9.8333334"
     inkscape:cx="3.6101695"
     inkscape:cy="15.661017"
     inkscape:window-width="1280"
     inkscape:window-height="961"
     inkscape:window-x="-8"
     inkscape:window-y="-8"
     inkscape:window-maximized="1"
     inkscape:current-layer="svg4" /><path
     id="path2"
     style="fill:url(#linearGradient1688);fill-opacity:1"
     d="M 6 2 C 4.8954327 2 4 2.8954327 4 4 L 4 20 C 4 21.104567 4.8954327 22 6 22 L 18 22 C 19.104567 22 20 21.104567 20 20 L 20 8 L 14 2 L 6 2 z M 13 3.5 L 18.5 9 L 13 9 L 13 3.5 z M 13.226562 9.859375 C 14.049018 9.8439021 14.848097 10.035665 15.556641 10.486328 C 16.125085 10.847885 16.339364 11.092856 16.306641 11.345703 C 16.280889 11.544644 15.604498 12.402718 15.080078 12.900391 C 14.193795 13.74147 13.414202 14.187409 11.869141 14.742188 C 9.7869156 15.489843 8.6741139 16.232666 7.5410156 17.628906 C 7.1559472 18.103404 6.7981136 18.038674 6.640625 17.464844 C 5.6565054 13.878994 9.662592 9.9264242 13.226562 9.859375 z M 16.992188 12.394531 C 17.481217 12.605608 17.666726 14.116911 17.193359 15.589844 C 16.391531 18.084822 13.341135 20.387561 10.775391 20.435547 C 9.2065202 20.464892 7.3650307 19.503408 7.6972656 18.828125 C 8.3273537 17.547452 9.9918494 16.305299 12.085938 15.552734 C 14.17462 14.802117 15.281097 14.064499 16.416016 12.666016 C 16.633266 12.398312 16.829178 12.324172 16.992188 12.394531 z " /></svg>
